<svg width="12" height="12" viewBox="0 0 12 12" fill="none" xmlns="http://www.w3.org/2000/svg">
<path d="M3.375 2.625C3.58211 2.625 3.75 2.45711 3.75 2.25C3.75 2.04289 3.58211 1.875 3.375 1.875C3.16789 1.875 3 2.04289 3 2.25C3 2.45711 3.16789 2.625 3.375 2.625Z" fill="white"/>
<path d="M9.75 3.75H2.25C2.05115 3.74979 1.86051 3.67071 1.7199 3.5301C1.57929 3.38949 1.50021 3.19885 1.5 3V1.5C1.50021 1.30115 1.57929 1.11051 1.7199 0.9699C1.86051 0.829293 2.05115 0.750208 2.25 0.75H9.75C9.94885 0.750208 10.1395 0.829293 10.2801 0.9699C10.4207 1.11051 10.4998 1.30115 10.5 1.5V3C10.4998 3.19885 10.4207 3.38949 10.2801 3.5301C10.1395 3.67071 9.94885 3.74979 9.75 3.75ZM2.25 1.5V3H9.75V1.5H2.25Z" fill="white"/>
<path d="M3.375 6.375C3.58211 6.375 3.75 6.20711 3.75 6C3.75 5.79289 3.58211 5.625 3.375 5.625C3.16789 5.625 3 5.79289 3 6C3 6.20711 3.16789 6.375 3.375 6.375Z" fill="white"/>
<path d="M9.75 7.5H2.25C2.05115 7.49979 1.86051 7.42071 1.7199 7.2801C1.57929 7.13949 1.50021 6.94885 1.5 6.75V5.25C1.50021 5.05115 1.57929 4.86051 1.7199 4.7199C1.86051 4.57929 2.05115 4.50021 2.25 4.5H9.75C9.94885 4.50021 10.1395 4.57929 10.2801 4.7199C10.4207 4.86051 10.4998 5.05115 10.5 5.25V6.75C10.4998 6.94885 10.4207 7.13949 10.2801 7.2801C10.1395 7.42071 9.94885 7.49979 9.75 7.5ZM2.25 5.25V6.75H9.75V5.25H2.25Z" fill="white"/>
<path d="M3.375 10.125C3.58211 10.125 3.75 9.95711 3.75 9.75C3.75 9.54289 3.58211 9.375 3.375 9.375C3.16789 9.375 3 9.54289 3 9.75C3 9.95711 3.16789 10.125 3.375 10.125Z" fill="white"/>
<path d="M9.75 11.25H2.25C2.05115 11.2498 1.86051 11.1707 1.7199 11.0301C1.57929 10.8895 1.50021 10.6988 1.5 10.5V9C1.50021 8.80115 1.57929 8.61051 1.7199 8.4699C1.86051 8.32929 2.05115 8.25021 2.25 8.25H9.75C9.94885 8.25021 10.1395 8.32929 10.2801 8.4699C10.4207 8.61051 10.4998 8.80115 10.5 9V10.5C10.4998 10.6988 10.4207 10.8895 10.2801 11.0301C10.1395 11.1707 9.94885 11.2498 9.75 11.25ZM2.25 9V10.5H9.75V9H2.25Z" fill="white"/>
</svg>
