<svg width="12" height="12" viewBox="0 0 12 12" fill="none" xmlns="http://www.w3.org/2000/svg">
<rect width="12" height="12" fill="white"/>
<path d="M10.8194 3.22606L9.94196 2.34866C9.82165 2.22826 9.67533 2.16804 9.50334 2.16804C9.3312 2.16804 9.18488 2.22826 9.06457 2.34866L4.83226 6.58737L2.93547 4.68412C2.81503 4.56368 2.6688 4.50352 2.49681 4.50352C2.32471 4.50352 2.17849 4.56368 2.05805 4.68412L1.18064 5.56155C1.0602 5.68197 1 5.82824 1 6.00032C1 6.17226 1.0602 6.31867 1.18064 6.43906L3.51608 8.77446L4.39355 9.65186C4.51393 9.77235 4.6602 9.83251 4.83226 9.83251C5.00424 9.83251 5.15052 9.77219 5.27096 9.65186L6.14841 8.77446L10.8194 4.10353C10.9397 3.98309 11 3.83684 11 3.66476C11.0001 3.49277 10.9397 3.3465 10.8194 3.22606Z" fill="#686A70"/>
</svg>
